<svg fill="current" xmlns="http://www.w3.org/2000/svg" xmlnsXlink="http://www.w3.org/1999/xlink" viewBox="4 0 1023.000000 107.00000" preserveAspectRatio="xMidYMid meet" >

  <g transform="translate(0.000000,108.000000) scale(0.100000,-0.100000)" fill="current" stroke="none">
    <path d="M4829 984 c-87 -68 -144 -130 -179 -193 -12 -20 -39 -46 -61 -59 -22 -13 -37 -27 -34 -31 2 -5 -8 -14 -24 -21 -72 -29 -76 -77 -11 -110 21 -11 41 -24 45 -30 13 -20 53 -10 79 21 14 17 26 27 26 22 0 -5 -13 -24 -28 -43 -39 -47 -52 -74 -52 -104 0 -18 5 -26 18 -26 10 0 27 -7 38 -15 40 -30 74 -19 132 43 l54 57 -51 -76 c-28 -42 -58 -82 -66 -89 -8 -7 -15 -18 -15 -24 0 -24 58 -67 119 -87 34 -12 61 -22 59 -24 -2 -1 -32 1 -66 5 -50 6 -70 14 -93 36 -24 23 -31 25 -44 14 -8 -7 -15 -27 -15 -44 -1 -51 -20 -6 -31 72 -10 73 -39 117 -72 108 -16 -4 -18 0 -12 35 6 36 5 39 -16 39 -13 0 -37 16 -59 40 -38 41 -65 49 -101 29 -20 -10 -20 -10 -3 23 10 18 17 39 15 46 -1 8 6 24 16 35 l18 22 -22 -19 c-23 -19 -23 -19 -23 2 0 16 -6 22 -21 22 -12 0 -17 4 -14 11 13 21 -5 59 -32 65 -23 6 -24 8 -10 19 10 7 17 19 17 27 0 9 7 21 15 28 12 10 24 6 68 -27 58 -44 109 -73 129 -73 7 0 -5 9 -27 19 -22 10 -64 37 -94 60 -30 22 -60 41 -66 41 -12 0 -178 -132 -244 -194 -23 -22 -70 -76 -103 -119 -64 -83 -75 -90 -351 -214 l-57 -26 -55 37 c-30 20 -61 36 -68 36 -8 0 -34 16 -60 36 -45 35 -46 35 -76 19 -34 -17 -38 -27 -18 -44 15 -12 37 3 37 26 0 16 5 16 31 2 11 -6 18 -17 15 -24 -6 -17 10 -30 49 -40 25 -6 27 -8 11 -14 -15 -6 -9 -11 30 -26 27 -10 60 -26 73 -37 13 -10 29 -18 35 -18 6 0 44 -16 85 -35 40 -19 80 -35 90 -35 9 0 23 -6 29 -12 7 -7 41 -15 75 -18 48 -4 63 -9 65 -22 3 -16 0 -16 -40 -4 -109 34 -129 39 -136 32 -6 -7 3 -17 67 -67 41 -33 14 -33 -30 0 -23 17 -65 38 -92 47 -47 15 -49 18 -32 30 17 12 17 16 5 28 -15 14 -175 66 -204 66 -42 0 10 -75 90 -128 10 -7 -11 3 -47 23 -76 40 -94 43 -86 15 3 -10 0 -21 -7 -23 -7 -3 -1 -15 14 -32 28 -32 8 -24 -30 11 -14 13 -45 39 -68 59 -24 19 -40 35 -34 35 5 0 21 -10 36 -21 15 -12 29 -19 32 -16 5 4 -11 86 -18 91 -1 1 -34 19 -72 40 -38 20 -77 47 -87 59 -23 28 -26 5 -4 -37 21 -40 19 -40 -18 -12 -19 15 -42 26 -53 26 -10 0 -28 12 -40 28 -18 22 -25 25 -36 14 -10 -10 -15 -7 -25 20 -6 18 -12 25 -12 16 -1 -27 -15 -21 -34 15 -12 22 -16 43 -12 59 4 15 1 36 -5 49 l-13 23 -13 -25 c-7 -14 -24 -31 -38 -39 -31 -16 -32 -24 -6 -43 12 -8 23 -30 27 -50 5 -31 3 -36 -18 -39 -37 -5 -28 -30 20 -57 37 -20 41 -26 26 -31 -12 -4 -15 -9 -8 -13 13 -8 57 -136 50 -144 -12 -11 -43 9 -66 42 -13 19 -32 37 -43 41 -14 4 -16 9 -9 18 8 9 0 23 -29 51 -33 32 -40 46 -40 76 0 52 -16 58 -24 9 -6 -38 -8 -39 -36 -33 -33 6 -36 3 -17 -30 23 -42 40 -57 64 -57 37 0 27 -24 -31 -70 -30 -24 -58 -55 -62 -69 -6 -24 -7 -22 -18 19 -9 39 -16 47 -46 56 -19 6 -44 24 -56 40 -11 16 -37 46 -57 68 -38 38 -44 65 -9 33 10 -10 29 -17 41 -17 24 0 25 13 6 65 -4 11 7 -1 24 -27 16 -25 35 -49 42 -54 13 -7 42 23 34 36 -3 4 2 13 10 20 19 16 19 37 0 74 -12 22 -13 32 -4 43 9 10 9 17 2 24 -8 8 -13 7 -17 0 -11 -17 -91 -14 -106 4 -8 9 -21 13 -36 9 -20 -5 -24 -2 -24 17 0 18 -2 21 -9 10 -8 -13 -12 -13 -26 -1 -12 10 -15 23 -10 48 4 23 3 32 -4 27 -6 -3 -11 -13 -11 -22 0 -12 -8 -14 -43 -9 -36 6 -46 3 -62 -13 -14 -17 -15 -24 -6 -35 7 -8 10 -24 6 -35 -7 -23 27 -51 62 -51 12 0 25 -5 28 -10 3 -6 -1 -10 -10 -10 -15 0 -15 -2 -1 -22 19 -27 21 -78 4 -78 -22 1 -85 45 -81 56 2 7 -12 22 -32 34 -27 17 -35 28 -35 50 0 16 -4 32 -10 35 -6 4 -10 -5 -10 -19 0 -33 -13 -33 -39 0 -28 36 -27 40 14 60 19 9 35 19 35 22 0 3 -12 18 -26 33 -30 31 -27 59 6 59 17 0 20 4 15 21 -6 19 -3 20 29 18 42 -4 57 6 24 16 -42 13 -49 24 -31 51 19 30 2 32 -34 4 -25 -20 -26 -20 -57 -1 -37 23 -178 31 -213 12 -12 -6 -36 -9 -55 -6 l-33 5 30 -10 c20 -7 40 -7 59 0 44 15 112 12 126 -5 11 -13 10 -14 -4 -9 -9 4 -16 1 -16 -6 0 -7 -7 -9 -15 -6 -8 3 -22 9 -30 12 -10 4 -15 0 -15 -13 0 -22 29 -53 49 -53 8 0 11 -6 7 -15 -3 -10 5 -20 24 -30 17 -9 30 -17 30 -19 0 -6 -93 5 -122 14 -39 13 -35 4 10 -19 21 -11 51 -38 67 -61 33 -48 86 -92 135 -113 46 -20 25 -21 -30 -2 -23 8 -58 15 -77 15 -19 0 -48 7 -64 16 -36 18 -45 14 -29 -15 17 -33 -4 -25 -24 9 -9 17 -40 42 -68 56 -52 26 -61 42 -14 24 15 -5 37 -10 49 -10 19 0 18 3 -10 20 -18 10 -39 32 -47 49 -11 19 -31 35 -61 47 -48 18 -75 42 -36 31 23 -6 81 12 81 25 0 4 -19 19 -41 34 -50 31 -56 29 -145 -50 -32 -29 -76 -59 -97 -67 -22 -7 -43 -22 -48 -31 -5 -10 -20 -18 -33 -18 -37 0 -70 -32 -62 -58 4 -12 13 -22 21 -22 7 0 37 -11 67 -25 29 -14 67 -25 85 -25 17 0 35 -4 38 -10 4 -6 -9 -10 -32 -10 -45 0 -83 -23 -83 -51 0 -22 55 -60 75 -52 8 3 16 -7 20 -26 8 -37 39 -61 77 -61 16 0 28 -6 28 -12 1 -28 59 -79 116 -102 67 -28 59 -39 -27 -34 -50 3 -53 5 -61 35 -7 27 -14 33 -34 33 -23 0 -25 3 -20 25 5 19 2 27 -11 31 -10 3 -31 12 -46 20 -16 7 -39 14 -52 14 -17 0 -27 9 -38 39 -9 21 -27 47 -40 58 -14 10 -26 28 -28 38 -3 13 -16 22 -38 26 -19 4 -38 14 -43 22 -4 9 -24 25 -43 37 -28 17 -34 26 -31 50 2 21 0 27 -11 23 -9 -3 -11 0 -8 10 4 8 -1 17 -9 20 -8 3 -12 14 -10 25 3 10 -2 24 -10 31 -24 20 -20 50 9 57 17 4 42 -3 81 -25 32 -17 59 -29 61 -27 2 2 -26 20 -63 41 l-66 37 -42 -18 c-22 -11 -92 -68 -155 -128 l-113 -109 -63 7 -63 6 -88 -66 c-113 -84 -172 -114 -336 -168 -73 -24 -169 -60 -214 -78 -84 -36 -194 -103 -194 -119 0 -5 2104 -9 5118 -9 l5117 1 -80 77 c-44 42 -98 103 -120 136 -22 33 -60 75 -85 95 l-45 35 55 -57 c30 -32 59 -73 65 -91 6 -21 26 -46 54 -67 24 -19 60 -54 80 -79 l36 -44 -40 24 c-22 13 -52 36 -67 51 -14 16 -39 31 -55 34 -15 3 -35 10 -43 14 -22 12 -81 132 -75 152 4 11 -2 26 -14 38 -26 26 -28 26 -35 -4 -14 -55 -36 -8 -36 77 0 34 -3 39 -17 33 -40 -16 -55 -17 -71 -2 -16 15 -18 14 -20 -10 -1 -15 -4 -29 -7 -31 -8 -8 -37 69 -31 84 8 21 -10 17 -60 -12 -27 -16 -54 -24 -69 -22 l-24 5 29 -36 c33 -39 40 -63 12 -38 -24 22 -31 21 -25 -3 9 -36 -6 -21 -39 37 -26 46 -33 53 -39 37 -4 -12 1 -32 13 -54 24 -41 40 -100 27 -100 -9 0 -20 21 -33 64 -5 15 -9 16 -21 6 -11 -9 -12 -17 -4 -32 6 -11 8 -26 5 -35 -5 -12 -13 -9 -40 15 -19 16 -40 32 -48 35 -10 3 -10 7 -1 17 8 8 16 9 29 2 25 -14 47 7 30 28 -15 17 -49 120 -43 127 3 2 15 -13 27 -34 14 -23 25 -33 28 -25 2 8 -1 19 -7 25 -6 6 -11 19 -11 30 0 10 -4 16 -9 12 -6 -3 -15 4 -21 15 -14 27 -28 25 -36 -4 -6 -27 -44 -67 -44 -47 0 13 18 48 39 74 8 9 12 20 8 23 -15 15 -129 -89 -121 -111 4 -8 1 -15 -5 -15 -6 0 -11 -7 -11 -15 0 -8 5 -15 10 -15 6 0 26 -23 47 -51 20 -28 54 -62 75 -75 21 -14 44 -37 50 -52 7 -15 20 -38 30 -51 23 -31 23 -41 -2 -41 -11 0 -26 12 -34 28 -8 16 -22 34 -30 41 -9 8 -16 21 -16 31 0 9 -36 53 -80 97 -44 44 -80 89 -80 99 -1 11 -7 30 -14 44 -10 17 -11 32 -5 48 14 36 5 38 -50 12 -47 -22 -49 -23 -40 -53 11 -40 4 -45 -21 -16 l-20 24 6 -30 c4 -16 11 -34 15 -39 5 -6 9 -16 9 -24 0 -8 12 -29 28 -47 15 -18 35 -45 45 -60 10 -14 37 -38 60 -52 51 -33 97 -73 97 -86 0 -19 -89 3 -133 33 -25 16 -49 30 -55 30 -6 0 -13 18 -17 41 -8 48 -52 102 -107 130 -38 19 -53 37 -21 25 13 -5 11 -1 -6 18 -19 21 -26 23 -42 13 -18 -11 -17 -13 9 -35 15 -13 41 -29 57 -37 43 -19 71 -53 89 -108 24 -72 22 -79 -21 -75 -29 2 -39 8 -41 23 -8 56 -16 67 -72 105 -33 22 -71 53 -85 68 -20 21 -25 23 -25 9 0 -26 -43 -21 -78 8 -17 14 -36 24 -43 23 -7 -2 -15 10 -19 27 -5 26 -7 27 -13 11 -7 -17 -10 -15 -27 17 -11 20 -20 55 -20 76 0 22 -3 42 -8 45 -4 2 -26 -18 -50 -46 -40 -48 -41 -50 -27 -78 8 -16 15 -39 15 -50 0 -34 31 -78 67 -95 32 -16 48 -40 18 -28 -12 4 -11 -2 5 -29 22 -38 43 -128 29 -128 -16 0 -90 80 -84 90 4 6 -12 32 -34 58 -25 29 -41 58 -41 74 0 33 -9 58 -22 58 -5 0 -8 -17 -7 -37 3 -36 2 -38 -22 -35 l-26 2 24 -50 c13 -27 27 -50 31 -50 5 0 16 -6 26 -13 22 -16 15 -33 -39 -104 l-33 -43 -6 35 c-6 30 -14 38 -47 51 -21 9 -39 20 -39 24 0 4 -16 31 -35 59 -33 47 -34 51 -14 51 13 0 23 8 26 21 5 18 7 18 24 -10 10 -17 23 -31 28 -31 14 0 24 126 11 149 -6 11 -8 31 -5 44 4 15 1 28 -9 36 -9 8 -16 22 -16 33 0 10 -7 33 -16 51 -9 17 -22 55 -29 84 -10 43 -10 53 1 53 16 0 44 -39 44 -60 0 -9 16 -31 35 -50 35 -34 43 -34 25 0 -7 13 -7 21 0 25 5 3 10 14 10 24 0 14 7 17 33 14 31 -4 31 -3 9 9 -12 8 -29 24 -38 37 -10 13 -22 20 -31 16 -9 -3 -22 0 -29 6 -11 9 -14 7 -14 -12 -1 -24 -1 -24 -26 5 -20 23 -24 35 -18 60 3 17 7 36 8 41 0 6 -11 11 -26 13 -27 3 -51 -22 -94 -97 -19 -34 -21 -35 -74 -32 -68 3 -102 -9 -152 -55 -30 -27 -44 -33 -61 -28 -47 15 -51 15 -32 3 11 -6 22 -14 24 -16 3 -2 -8 -16 -23 -32 -33 -35 -28 -77 12 -92 13 -5 38 -19 53 -30 27 -19 29 -23 23 -73 -6 -49 -4 -54 21 -74 15 -12 33 -22 40 -22 7 0 17 -12 23 -27 13 -38 49 -73 73 -73 11 0 23 -8 26 -17 14 -38 65 -89 115 -114 l52 -27 -51 -7 c-63 -8 -70 -4 -79 40 -4 24 -12 35 -27 37 -15 2 -24 12 -27 30 -4 20 -17 34 -45 48 -21 11 -45 20 -53 20 -7 0 -22 19 -32 43 -11 24 -29 52 -41 63 -12 10 -28 34 -36 52 -7 18 -21 32 -31 32 -24 0 -115 95 -118 123 -1 12 3 29 9 37 9 12 9 13 -3 3 -21 -19 -32 -16 -25 7 5 14 2 20 -10 20 -9 0 -15 6 -12 13 2 6 -3 26 -13 42 -9 17 -16 37 -15 45 1 8 3 21 3 28 3 20 22 14 83 -28 33 -22 59 -38 59 -36 0 10 -112 86 -127 86 -10 0 -43 -22 -73 -50 -30 -27 -65 -50 -76 -50 -12 0 -41 -9 -65 -20 -26 -11 -66 -20 -96 -20 -59 0 -73 -12 -47 -41 9 -10 13 -19 9 -19 -5 0 -4 -5 3 -12 7 -7 12 -21 12 -33 0 -14 10 -24 32 -33 30 -11 31 -13 15 -30 -9 -10 -17 -30 -17 -43 0 -30 26 -69 46 -69 8 0 19 -11 24 -24 5 -13 14 -27 19 -31 24 -14 9 -33 -31 -39 -24 -4 -88 -22 -144 -41 -55 -18 -115 -35 -134 -37 -30 -3 -34 0 -42 28 -4 18 -19 39 -33 48 -27 18 -35 42 -11 33 10 -4 18 5 25 25 6 17 10 32 9 33 -80 51 -114 57 -54 9 35 -28 38 -44 8 -44 -9 0 -30 21 -46 47 -41 64 -70 93 -93 93 -11 0 -28 9 -38 20 -10 11 -22 17 -27 14 -13 -8 -39 16 -31 29 3 5 1 7 -4 4 -6 -4 -13 -19 -16 -34 -4 -24 -3 -25 7 -10 12 15 14 15 24 -7 6 -13 27 -45 46 -71 41 -53 44 -65 18 -65 -32 0 -33 -13 -5 -32 16 -10 44 -18 63 -18 29 0 45 -9 88 -50 29 -27 52 -54 52 -60 0 -5 -13 -10 -28 -10 -16 0 -37 -7 -48 -15 -27 -20 -43 -19 -69 8 -12 12 -41 33 -64 47 -47 28 -54 44 -13 34 23 -6 19 0 -30 47 -61 58 -71 79 -38 79 27 0 27 49 1 72 -19 16 -22 14 -70 -50 -60 -82 -86 -106 -101 -97 -6 4 -27 39 -46 79 -18 39 -31 60 -27 46 8 -32 8 -40 -1 -66 -5 -18 2 -28 43 -58 28 -19 58 -50 67 -68 9 -18 50 -69 93 -112 56 -58 67 -73 41 -57 -19 12 -55 33 -80 47 -25 13 -55 40 -67 59 -21 31 -26 34 -55 28 -32 -6 -33 -6 -15 14 9 11 17 28 17 39 0 19 -73 104 -89 104 -5 0 -16 -10 -25 -23 -16 -22 -16 -22 -10 11 6 36 -13 153 -32 191 l-12 23 -12 -22 c-18 -33 -23 -17 -6 21 8 19 17 43 21 54 6 18 10 16 43 -20 28 -32 32 -34 17 -10 -22 36 -44 54 -65 55 -17 0 -83 -65 -144 -143 -20 -26 -43 -47 -50 -47 -19 0 -69 58 -120 138 -25 39 -50 72 -55 72 -6 0 19 -43 55 -95 36 -53 62 -100 59 -105 -4 -6 4 -24 15 -41 23 -31 23 -51 0 -24 -20 24 -30 17 -19 -12 l10 -28 -25 24 c-14 13 -35 44 -47 70 -20 43 -22 45 -30 23 -9 -24 0 -51 26 -82 7 -8 17 -38 23 -65 6 -28 14 -58 17 -68 4 -9 3 -17 -2 -17 -11 0 -34 51 -53 114 -11 35 -14 37 -28 22 -13 -12 -13 -19 -4 -28 16 -16 15 -48 -1 -48 -7 0 -23 11 -35 25 -12 14 -29 25 -38 25 -12 0 -15 6 -10 23 3 12 6 25 6 30 0 14 20 7 20 -7 0 -22 18 -29 35 -13 13 13 13 17 0 27 -8 7 -15 18 -15 24 0 6 -5 18 -10 26 -9 13 -11 13 -19 0 -6 -8 -12 -12 -15 -9 -7 7 49 150 60 152 12 3 17 -30 8 -51 -11 -25 -13 -72 -3 -72 5 0 9 6 9 13 0 7 9 29 20 50 24 44 24 47 5 47 -9 0 -21 11 -27 25 -14 30 -24 32 -33 5 -3 -11 -21 -37 -38 -59 -18 -22 -40 -50 -49 -62 -34 -44 -18 4 17 52 25 35 35 60 35 87 0 25 3 33 9 23 6 -8 16 -11 27 -7 15 6 12 11 -22 31 -21 13 -44 25 -50 25 -19 0 -53 -44 -84 -113 -16 -37 -32 -67 -34 -67 -2 0 -13 15 -25 33 -11 17 -21 27 -21 22 0 -6 12 -28 27 -50 17 -25 22 -40 15 -43 -20 -6 -13 -31 12 -47 13 -9 34 -36 47 -60 13 -25 33 -46 45 -49 36 -9 75 -47 97 -95 12 -25 23 -49 25 -54 2 -4 -17 5 -42 20 -32 20 -47 37 -52 58 -8 39 -22 55 -45 55 -11 0 -19 7 -19 15 0 25 -70 95 -95 95 -19 0 -21 4 -17 27 3 15 -3 40 -13 59 -14 26 -15 39 -7 63 9 27 9 31 -6 31 -9 -1 -32 -9 -51 -18 -40 -20 -49 -53 -26 -89 23 -35 0 -28 -30 10 -15 17 -25 25 -23 17 3 -8 11 -37 19 -64 12 -43 19 -52 57 -68 29 -13 42 -25 42 -39 0 -33 18 -58 63 -86 59 -37 137 -106 137 -120 0 -17 -4 -16 -51 6 -22 11 -53 23 -70 26 -17 4 -33 13 -36 21 -3 8 -11 14 -19 14 -8 0 -23 9 -34 20 -12 12 -25 18 -30 15 -5 -3 -15 18 -24 48 -16 56 -56 102 -113 131 -35 18 -45 29 -15 19 11 -4 7 5 -12 25 -27 29 -31 30 -46 17 -9 -8 -29 -15 -43 -15 -39 0 -33 -15 17 -50 54 -37 74 -40 29 -4 -33 26 -42 44 -22 44 6 0 24 -11 41 -25 16 -14 36 -25 43 -25 26 0 74 -51 91 -98 24 -64 66 -126 132 -194 31 -32 54 -60 51 -62 -6 -6 -69 38 -165 116 -55 45 -72 65 -80 95 -7 31 -21 46 -79 85 -38 26 -80 60 -93 75 l-23 28 7 -30 c8 -37 33 -85 73 -145 36 -53 31 -69 -7 -20 -15 19 -61 73 -102 119 -75 85 -75 85 -80 55 l-6 -29 -14 39 c-14 35 -15 36 -20 15 -5 -21 -10 -16 -33 35 -15 32 -27 72 -27 90 0 41 -10 76 -21 76 -5 0 -9 -5 -9 -11 0 -6 -16 -29 -35 -50 -39 -43 -42 -57 -20 -99 8 -16 13 -35 10 -42 -12 -31 34 -76 117 -117 80 -40 94 -56 21 -26 -44 19 -59 19 -46 3 6 -7 13 -25 17 -40 7 -32 74 -108 94 -108 7 0 30 -11 50 -25 41 -28 36 -33 -9 -9 -34 17 -95 12 -126 -11 -28 -22 -35 -18 -17 10 15 23 14 26 -11 59 -14 19 -33 37 -41 40 -8 3 -14 14 -12 24 1 10 -15 40 -38 66 -29 34 -43 61 -47 89 -8 61 -27 71 -27 14 0 -46 -1 -47 -26 -41 -15 4 -25 3 -22 -2 2 -5 12 -27 22 -49 9 -22 30 -48 47 -57 16 -9 29 -21 29 -26 0 -5 -14 -29 -31 -55 -35 -53 -30 -74 24 -107 44 -27 21 -25 -27 3 -27 15 -42 33 -50 57 -20 64 -66 39 -66 -36 0 -13 -4 -24 -10 -24 -5 0 -10 1 -10 3 0 1 -7 37 -15 80 -10 53 -25 92 -45 123 -30 42 -30 44 -9 44 19 0 21 4 16 30 -7 33 8 42 18 11 7 -22 43 -57 51 -49 3 4 7 22 8 41 2 19 6 39 10 45 3 6 -1 31 -9 55 -8 25 -12 52 -9 61 9 24 -23 20 -38 -4 -24 -37 -30 -20 -24 63 3 45 2 98 -2 117 -11 50 -35 45 -48 -10 -11 -45 -12 -45 -18 -15 -11 45 -22 60 -44 59 -12 0 -19 3 -16 8 3 5 20 8 37 6 31 -3 32 -2 41 50 5 28 12 52 16 52 5 0 22 -16 39 -35 21 -25 31 -46 31 -69 0 -22 8 -40 25 -56 14 -13 41 -47 62 -77 20 -29 38 -53 41 -53 2 0 -13 30 -33 66 -20 36 -35 68 -32 70 2 3 17 0 32 -6 15 -6 29 -9 31 -7 5 5 -177 182 -201 195 -20 11 -20 11 -1 25 18 13 18 15 -7 38 -20 19 -23 29 -16 47 4 12 14 22 22 22 24 0 110 -63 126 -93 9 -16 22 -36 29 -45 12 -15 12 -15 7 6 -4 12 -2 22 2 22 10 0 70 -60 147 -146 48 -53 62 -81 24 -48 l-21 19 17 -26 c9 -15 34 -39 56 -53 21 -14 41 -34 45 -45 3 -11 12 -18 19 -15 7 3 38 -22 69 -56 32 -34 57 -56 57 -51 0 6 -31 44 -69 84 -38 39 -122 130 -187 200 -65 70 -145 147 -178 171 -83 59 -153 106 -158 106 -3 0 -43 -30 -89 -66z m-3906 -585 c23 -12 53 -31 67 -44 14 -12 39 -30 55 -39 21 -12 23 -15 8 -11 -39 11 -25 -5 22 -26 24 -11 47 -24 50 -30 4 -5 23 -8 42 -7 30 2 40 -3 63 -30 32 -38 124 -75 167 -66 19 4 52 -4 96 -21 79 -32 93 -45 34 -34 -23 4 -65 8 -93 9 -55 0 -139 24 -165 47 -14 12 -17 12 -22 -2 -8 -20 -66 -20 -95 1 -13 9 -30 13 -38 10 -11 -4 -18 1 -21 14 -4 15 -9 18 -18 10 -20 -17 -49 23 -36 49 14 25 14 31 1 31 -5 0 -10 -7 -10 -15 0 -22 -22 -28 -55 -15 -24 9 -32 8 -48 -9 -14 -13 -17 -25 -12 -38 5 -10 9 -29 9 -43 1 -17 10 -29 32 -40 17 -8 29 -21 27 -27 -3 -7 0 -13 6 -13 6 0 11 -5 11 -11 0 -14 -59 -4 -105 18 -26 12 -35 23 -37 46 -2 17 -8 32 -14 34 -7 2 -10 -6 -7 -22 7 -32 -10 -32 -36 1 -28 36 -26 49 9 64 42 18 46 28 16 51 -33 26 -34 55 -1 63 16 4 22 11 19 21 -5 12 3 15 37 16 l44 1 -32 14 c-39 17 -48 31 -33 49 16 19 13 19 63 -6z m3141 -60 c55 -33 105 -59 111 -59 19 0 35 -22 25 -35 -7 -8 -2 -19 15 -35 20 -19 36 -23 105 -25 72 -1 83 -4 108 -28 15 -15 52 -36 82 -46 33 -12 46 -20 33 -20 -31 -1 -104 28 -125 50 -10 10 -34 21 -53 25 -67 12 -116 -49 -59 -74 20 -10 25 -18 22 -40 -3 -25 -6 -27 -48 -24 -26 1 -55 11 -70 22 -14 11 -46 36 -71 55 -49 37 -66 70 -47 92 7 9 7 13 -1 13 -6 0 -11 -4 -11 -10 0 -5 -4 -10 -10 -10 -5 0 -10 9 -10 20 0 11 -7 20 -15 20 -8 0 -15 6 -15 13 0 7 -6 22 -14 32 -12 17 -18 18 -40 7 -29 -13 -33 -6 -11 25 13 19 13 22 -1 27 -29 11 -53 6 -67 -14 -14 -20 -15 -20 -20 -1 -7 27 11 41 50 41 18 0 33 5 33 10 0 6 -4 10 -8 10 -5 0 -17 7 -28 15 -18 14 -17 15 11 9 17 -4 75 -33 129 -65z m2357 -33 c24 -22 38 -41 31 -44 -6 -2 3 -19 24 -40 19 -20 38 -41 42 -45 4 -5 29 -25 56 -45 64 -47 70 -65 19 -47 -21 7 -72 17 -113 21 -41 4 -68 9 -60 11 42 12 43 13 30 28 -6 8 -9 19 -5 25 8 14 -33 80 -50 80 -7 0 -23 -16 -35 -36 -12 -19 -24 -34 -26 -32 -8 9 17 84 31 94 15 11 15 15 1 43 -28 54 -16 51 55 -13z m3332 -61 c-3 -8 2 -18 11 -21 9 -4 23 -19 31 -34 8 -15 36 -42 64 -59 49 -32 80 -71 44 -56 -10 4 -40 13 -68 20 -27 7 -49 17 -48 22 1 6 -7 19 -17 28 -11 10 -20 23 -20 29 0 6 -11 25 -25 41 l-25 30 -20 -24 -20 -23 0 25 c0 13 6 30 14 36 12 10 12 16 0 39 -23 45 -16 46 35 2 32 -26 48 -46 44 -55z" />
    <path d="M8390 864 c0 -8 67 -34 87 -34 10 1 -4 10 -32 20 -56 22 -55 22 -55 14z" />
    <path d="M2470 786 c-121 -60 -127 -62 -160 -49 -26 10 -30 10 -16 0 25 -16 150 -107 156 -113 2 -3 -3 -2 -13 2 -38 14 -14 -8 28 -26 25 -11 45 -24 45 -29 0 -6 15 -8 34 -6 24 3 38 -1 51 -15 20 -22 41 -27 28 -7 -4 6 -11 37 -14 67 -4 30 -10 65 -14 78 -10 30 4 28 43 -7 26 -24 31 -35 26 -58 -4 -23 1 -34 32 -63 l37 -35 -7 28 c-6 23 -3 29 20 38 21 7 24 13 16 21 -26 26 -13 38 31 32 l42 -5 -25 20 c-75 61 -82 64 -90 51 -7 -11 -12 -11 -23 -2 -12 10 -16 8 -21 -10 l-5 -23 -27 26 c-23 23 -24 29 -13 47 11 18 10 27 -4 56 -9 20 -14 36 -11 36 11 0 93 -46 164 -91 75 -49 229 -193 180 -170 -19 9 -17 5 10 -18 19 -17 45 -39 58 -51 12 -11 28 -20 35 -20 17 -1 80 -50 112 -88 15 -18 51 -44 79 -58 28 -13 42 -19 32 -12 -11 7 -28 21 -38 30 -10 10 -20 18 -23 18 -2 0 -28 24 -57 53 -124 123 -308 287 -358 319 -77 49 -176 98 -197 97 -10 0 -74 -28 -143 -63z" />
    <path d="M8550 782 c97 -84 127 -114 105 -108 -11 3 3 -15 33 -42 28 -26 52 -52 52 -59 0 -7 6 -10 13 -7 12 4 79 -56 112 -101 8 -11 15 -15 15 -9 1 31 -343 375 -374 374 -6 -1 14 -22 44 -48z" />
    <path d="M1813 739 c14 -8 22 -8 30 0 8 8 3 11 -18 11 -26 -1 -28 -2 -12 -11z" />
    <path d="M7206 651 c-27 -28 -27 -29 -11 -61 19 -36 56 -73 98 -95 15 -9 27 -23 27 -31 0 -12 4 -14 13 -6 7 5 21 6 32 1 11 -4 38 -8 60 -8 l40 0 -80 77 c-44 43 -91 90 -105 105 l-25 29 30 -7 c20 -5 27 -4 20 3 -5 5 -24 13 -40 16 -25 6 -36 2 -59 -23z" />
    <path d="M7085 623 c4 -10 9 -25 10 -33 6 -42 56 -110 79 -110 6 0 26 -16 44 -34 19 -19 47 -38 63 -41 17 -4 41 -19 54 -33 13 -14 27 -23 31 -20 12 12 -35 65 -73 83 -53 24 -72 43 -66 64 5 19 -44 74 -105 119 -37 27 -47 28 -37 5z" />
    <path d="M1460 590 c8 -5 22 -9 30 -9 10 0 8 3 -5 9 -27 12 -43 12 -25 0z" />
    <path d="M6961 573 c-7 -13 -3 -23 17 -42 15 -14 31 -24 36 -23 16 5 102 -43 123 -68 17 -20 16 -5 -1 29 -12 23 -58 68 -113 112 -19 15 -51 11 -62 -8z" />
    <path d="M9490 505 c30 -30 57 -55 59 -55 3 0 -19 25 -49 55 -30 30 -57 55 -59 55 -3 0 19 -25 49 -55z" />
    <path d="M5666 535 c-10 -8 -23 -16 -28 -17 -12 -4 61 -83 85 -91 25 -9 21 3 -14 46 -21 26 -28 43 -24 57 7 24 6 24 -19 5z" />
    <path d="M6600 504 c0 -43 14 -61 34 -45 13 11 16 11 16 1 0 -8 2 -11 5 -8 3 2 0 19 -6 37 -6 18 -14 30 -17 27 -3 -3 -11 -1 -19 5 -10 9 -13 6 -13 -17z" />
    <path d="M9016 482 c-8 -14 20 -59 45 -72 40 -22 39 -6 -5 44 -20 24 -36 35 -40 28z" />
    <path d="M8890 435 c0 -2 21 -18 48 -35 39 -26 42 -27 20 -6 -16 14 -28 30 -28 36 0 5 -9 10 -20 10 -11 0 -20 -2 -20 -5z" />
  </g>
</svg>